/* XPM */
static char * okchien_xpm[] = {
"64 64 331 2",
"  	c #000000",
". 	c #28200C",
"+ 	c #4C0000",
"@ 	c #403018",
"# 	c #543C1C",
"$ 	c #5C4020",
"% 	c #302410",
"& 	c #6C4824",
"* 	c #400000",
"= 	c #202020",
"- 	c #4F2B0B",
"; 	c #2D210D",
"> 	c #460000",
", 	c #1C1C1C",
"' 	c #4C2B1E",
") 	c #723809",
"! 	c #C85F08",
"~ 	c #CA5F00",
"{ 	c #CC6000",
"] 	c #CB6722",
"^ 	c #F7F4F2",
"/ 	c #F5F3F0",
"( 	c #C75E02",
"_ 	c #4A2512",
": 	c #141414",
"< 	c #B45600",
"[ 	c #C25B00",
"} 	c #C95F00",
"| 	c #F1B290",
"1 	c #FDFCFB",
"2 	c #FDF9F6",
"3 	c #CB5F00",
"4 	c #C75E01",
"5 	c #131313",
"6 	c #36250F",
"7 	c #C45C00",
"8 	c #F7F5F3",
"9 	c #FEFCF9",
"0 	c #FDF9F5",
"a 	c #211909",
"b 	c #070707",
"c 	c #382C14",
"d 	c #361F09",
"e 	c #C35B00",
"f 	c #CB6103",
"g 	c #CA5F04",
"h 	c #CB5F01",
"i 	c #FDF6F2",
"j 	c #FDFCFA",
"k 	c #FDF9F7",
"l 	c #D58B6E",
"m 	c #191919",
"n 	c #603B19",
"o 	c #3F250C",
"p 	c #BC5900",
"q 	c #CFBCB7",
"r 	c #373737",
"s 	c #C45D10",
"t 	c #FDF8F5",
"u 	c #FCFCFC",
"v 	c #D0703F",
"w 	c #222222",
"x 	c #030303",
"y 	c #483818",
"z 	c #110E04",
"A 	c #1D0700",
"B 	c #32220D",
"C 	c #BB5900",
"D 	c #301100",
"E 	c #D78562",
"F 	c #FDFBF8",
"G 	c #D79279",
"H 	c #C55D01",
"I 	c #28140C",
"J 	c #0D0201",
"K 	c #392E2A",
"L 	c #C55F13",
"M 	c #CD6209",
"N 	c #D47F59",
"O 	c #FBF8F6",
"P 	c #C55D00",
"Q 	c #D1CBC9",
"R 	c #2A2624",
"S 	c #0E0E0E",
"T 	c #211809",
"U 	c #B75500",
"V 	c #7E7979",
"W 	c #F9F4F2",
"X 	c #FCF9F7",
"Y 	c #FAF7F4",
"Z 	c #F4F2F0",
"` 	c #BF5B00",
" .	c #3C1800",
"..	c #3A1E06",
"+.	c #C05A00",
"@.	c #060606",
"#.	c #040404",
"$.	c #C35D00",
"%.	c #2A2A2A",
"&.	c #F7F6F5",
"*.	c #454444",
"=.	c #3E3D3D",
"-.	c #1C1C1B",
";.	c #F9F6F4",
">.	c #F9F7F6",
",.	c #F8F5F4",
"'.	c #CA5E00",
").	c #151004",
"!.	c #C05B00",
"~.	c #B55914",
"{.	c #FAF8F6",
"].	c #0F0F0F",
"^.	c #F5F4F3",
"/.	c #FCFCFB",
"(.	c #FDF6F3",
"_.	c #BB5B0A",
":.	c #C65D02",
"<.	c #242424",
"[.	c #181818",
"}.	c #E7E6E5",
"|.	c #CACACA",
"1.	c #1D1D1D",
"2.	c #0B0B0B",
"3.	c #101010",
"4.	c #FEFCFA",
"5.	c #894214",
"6.	c #CB6000",
"7.	c #151515",
"8.	c #080808",
"9.	c #DCDCDC",
"0.	c #FBFBFB",
"a.	c #E3E3E3",
"b.	c #EDEDED",
"c.	c #F5F4F4",
"d.	c #2F2F2E",
"e.	c #121212",
"f.	c #391500",
"g.	c #613811",
"h.	c #291B0A",
"i.	c #C4C3C3",
"j.	c #EFEDEB",
"k.	c #1E1607",
"l.	c #C95E00",
"m.	c #BE5900",
"n.	c #111111",
"o.	c #737271",
"p.	c #1E1E1D",
"q.	c #020101",
"r.	c #B55608",
"s.	c #B45504",
"t.	c #6D5F5B",
"u.	c #9F2F15",
"v.	c #402220",
"w.	c #535353",
"x.	c #685C59",
"y.	c #C45E00",
"z.	c #47271A",
"A.	c #C25D08",
"B.	c #F1EFED",
"C.	c #7F7E7D",
"D.	c #010101",
"E.	c #0D0C0C",
"F.	c #CB6108",
"G.	c #7C7C7C",
"H.	c #A73117",
"I.	c #A73216",
"J.	c #949292",
"K.	c #F7F4F1",
"L.	c #D27D58",
"M.	c #C25D00",
"N.	c #0C0C0C",
"O.	c #1B1B1B",
"P.	c #ECE9E7",
"Q.	c #FBF9F7",
"R.	c #1E1E1E",
"S.	c #200D05",
"T.	c #B55400",
"U.	c #FDFBFA",
"V.	c #A83018",
"W.	c #D8D6D5",
"X.	c #FAF7F5",
"Y.	c #CC6106",
"Z.	c #BD5A07",
"`.	c #6C3000",
" +	c #BC5A00",
".+	c #B25709",
"++	c #232322",
"@+	c #20201F",
"#+	c #100503",
"$+	c #C15C02",
"%+	c #C75D00",
"&+	c #CD620F",
"*+	c #FBF7F6",
"=+	c #F5F2F0",
"-+	c #5C5C5C",
";+	c #646464",
">+	c #F8F7F5",
",+	c #CD641D",
"'+	c #CD6104",
")+	c #C85E00",
"!+	c #C65E03",
"~+	c #171717",
"{+	c #262525",
"]+	c #C95F02",
"^+	c #FBF0EA",
"/+	c #D06619",
"(+	c #6E441E",
"_+	c #C75F0A",
":+	c #BD5C10",
"<+	c #212120",
"[+	c #F6F3F1",
"}+	c #0A0A0A",
"|+	c #C85E02",
"1+	c #CA5F01",
"2+	c #FBF6F3",
"3+	c #FEF8F5",
"4+	c #C75E00",
"5+	c #191818",
"6+	c #F2EFED",
"7+	c #1A1A1A",
"8+	c #070100",
"9+	c #CC6001",
"0+	c #FCF7F5",
"a+	c #FEFBF9",
"b+	c #FEFAF7",
"c+	c #C55C00",
"d+	c #2F2F2F",
"e+	c #252525",
"f+	c #FAF8F5",
"g+	c #260B00",
"h+	c #C55D03",
"i+	c #FEF5F0",
"j+	c #C56010",
"k+	c #C75E05",
"l+	c #734B3C",
"m+	c #7E7E7E",
"n+	c #F1EFEC",
"o+	c #161616",
"p+	c #130400",
"q+	c #833F13",
"r+	c #CB6001",
"s+	c #CC6102",
"t+	c #F3EFED",
"u+	c #DCDAD8",
"v+	c #7F7E7E",
"w+	c #B66238",
"x+	c #C85F02",
"y+	c #C95F01",
"z+	c #565656",
"A+	c #858585",
"B+	c #F3F0EE",
"C+	c #2D2C2B",
"D+	c #908F8F",
"E+	c #FEFBFA",
"F+	c #E4B9AD",
"G+	c #E0DEDD",
"H+	c #777777",
"I+	c #838383",
"J+	c #818181",
"K+	c #808080",
"L+	c #717171",
"M+	c #C37959",
"N+	c #FDFAF8",
"O+	c #F7F5F4",
"P+	c #D27C56",
"Q+	c #B85809",
"R+	c #F9F8F6",
"S+	c #C9C9C9",
"T+	c #A4A4A4",
"U+	c #828282",
"V+	c #160600",
"W+	c #CD7C59",
"X+	c #A8A8A8",
"Y+	c #150500",
"Z+	c #9E9D9D",
"`+	c #7F7F7F",
" @	c #1A0600",
".@	c #CC610D",
"+@	c #CA6213",
"@@	c #484848",
"#@	c #262221",
"$@	c #A3A3A3",
"%@	c #B4B4B4",
"&@	c #EEEEEC",
"*@	c #F6EEEB",
"=@	c #FCF8F7",
"-@	c #303030",
";@	c #F7F5F2",
">@	c #FEFBF8",
",@	c #FCFAF7",
"'@	c #200900",
")@	c #A6A6A6",
"!@	c #BEBEBE",
"~@	c #C7C7C7",
"{@	c #F8F6F3",
"]@	c #F4F2EF",
"^@	c #F6F4F2",
"/@	c #383838",
"(@	c #F5F3F1",
"_@	c #F2F0ED",
":@	c #2C2C2C",
"<@	c #FDF1E9",
"[@	c #ECDAD3",
"}@	c #291B16",
"|@	c #4B4B4B",
"1@	c #5F5F5F",
"2@	c #545454",
"3@	c #F9F7F5",
"4@	c #8F8E8C",
"5@	c #F3F2F2",
"6@	c #777675",
"7@	c #DFDDDB",
"8@	c #F6F4F1",
"9@	c #DFDDDC",
"0@	c #F4F2F1",
"a@	c #F6F5F4",
"b@	c #F8F6F4",
"c@	c #F5F3F2",
"d@	c #545353",
"e@	c #404040",
"f@	c #F0F0EF",
"g@	c #959594",
"h@	c #9B9999",
"i@	c #C2C0BF",
"j@	c #F0EFED",
"k@	c #090909",
"l@	c #ECECEC",
"m@	c #F2F1F0",
"n@	c #D5D5D5",
"o@	c #C0C0C0",
"p@	c #878787",
"  .   + @ # # $ $ $ $ $ $ $ $ $ $ $ $ $ $ $ $ $ $ $ $ $ # # @ +   .   + @ # # $ $ $ $ $ $ $ $ $ $ $ $ $ $ $ $ $ $ $ $ $ # # @ + ",
"  .   % # # # # # # # # # # # # # # # # # # # # # # # # # # # %   .   % # # # # # # # # # # # # # # # # # # # # # # # # # # # % ",
"  .   % # # # # # # # # # # # # # # # # # # # # # # # # # # # %   .   % # # # # # # # # # # # # # # # # # # # # # # # # # # # % ",
"  .   % # # # # # # # # # # @ # # # # # # # # # # # # # # @ # %   .   % # # # # # # # # # # @ # # # # # # # # # # # # # # @ # % ",
"  .   % # # # # # # # # # @ # @ # # # # # # # # # # # # @ # @ %   .   % # # # # # # # # # @ # @ # # # # # # # # # # # # @ # @ % ",
"  .   % # # # # # # # # # @ # @ # # # # # # # # # # # # @ # @ %   .   % # # # # # # # # # @ # @ # # # # # # # # # # # # @ # @ % ",
"  .   % # # # # # # # # @ # @ # # # # @ # # # # @ # # @ # @ @ %   .   % # # # # # # # # @ # @ # # # # @ # # # # @ # # @ # @ @ % ",
"  .   % # # # # # # # @ # @ # @ # @ # @ @ # @ # @ @ @ @ @ @ # %   .   % # # # # # # # @ # @ # @ # @ # @ @ # @ # @ @ @ @ @ @ # % ",
"  .   % # # @ # @ @ @ @ @ # @ # @ @ @ @ @ @ # @ # @ @ # # @ @ %   .   % # # @ # @ @ @ @ @ # @ # @ @ @ @ @ @ # @ # @ @ # # @ @ % ",
"  .   % @ + # + @ @ @ @ + @ # @ @ + @ # @ # + @ @ @ + @ @ + @ %   .   % @ + # + @ @ @ @ + @ # @ @ + @ # @ # + @ @ @ + @ @ + @ % ",
"  .   % @ % + @ + % @ + @ + @ + + @ + + @ + @ @ @ + @ % + @ + %   .   % @ % + @ + % @ + @ + @ + + @ + + @ + @ @ @ + @ % + @ + % ",
"  .   % % % % + % + % @ % @ + % @ + % + % + % + % @ % + % @ + %   .   % % % % + % + % @ % @ + % @ + % + % + % + % @ % + % @ + % ",
"  .   % + % + % + + + % + % % @ + + + % + % + % + % + % + % % %   .   % + % + % + + + % + % % @ + + + % + % + % + % + % + % % % ",
"  .   . . . . . . . . . . . . . . . . . . . . . . . . . . . . .   .   . . . . . . . . . . . . . . . . . . . . . . . . . . . . . ",
"                                                                                                                                ",
"                                                                                                                                ",
". . . . . . . . . . . . . . . . . . . . . . . . . . . . . . . . . . . . . . . . . . . . . . . . . . . . . . . . . . . . . . . . ",
"$ $ $ $ $ $ $ $ $ $ $ # # @ +   . . @ # # $ & & & & & & & & & & & & & & & & & & & & & $ % % % . .   + @ # # $ $ $ $ $ $ $ $ $ $ ",
"# # # # # # # # # # # # # # %   .   % # # # # # # # # # # # # # # # # # # # # # # # # + % % .   .   % # # # # # # # # # # # # # ",
"# # # # # # # # # # # # # # %   .   % # # # # # # # # # # # # # # # # # # # # # # # # % . @ %   .   % # # # # # # # # # # # # # ",
"# # # # # # # # # # # # @ # %   .   % # # # # # # # # # # @ # # # # # # # # # # # # # % # # %   .   % # # # # # # # # @ # # # # ",
"# # @ # # # # @ # # @ # @ @ %   .   % # # # # # # # # @ # @ # # # # @ # # # # @ # # % @ # @ %   .   % # # # # # # # # @ # # # # ",
"@ # @ @ # @ # @ @ @ @ @ @ # %   .   % # # # # # # # @ # @ # @ # @ # @ @ # @ # @ @ % @ # @ # %   .   % # # # # # # # @ # @ # @ @ ",
"# # # # # # # # # # # @ # @ %   .   % # # # # # # # # # @ # @ # # # # # # # # # + % # @ # @ %   .   % # # # # # # # # # @ # # # ",
"# # @ # # # # @ # # @ # @ @ %   .   % # # # # # # # # @ # @ # # # # @ # # # + % % % @ # @ @ %   .   % # # # # # # # # @ # # # # ",
"@ # @ @ # @ # @ @ @ @ @ @ # %   .   % # # # # # # # @ # @ # @ # @ # @ @ + % + @ + % % @ @ # %   .   % # # # # # # # @ # @ # @ @ ",
"@ @ @ @ @ # @ # @ @ # # @ @ %   .   % # # @ # @ @ @ @ @ # @ # @ @ % % % % + @ # @ % % # @ @ %   .   % # # @ # @ @ @ @ @ # @ @ @ ",
"+ @ # @ # + @ @ @ + @ @ + @ %   .   % @ + # + @ @ @ @ + @ # @ @ % % @ # @ + @ @ % % # @ + @ %   .   % @ + # + @ @ @ @ # @ @ + + ",
"@ + + @ + @ @ @ + @ % + @ + %   .   % @ % + @ + % @ + @ + @ + % + + + @ + @ @ % % # @ + @ + %   .   % @ % + @ + % @ + @ + + @ @ ",
"+ % + % + % + % @ % + % @ + %   .   % % % % + % + % @ % @ @ . * * % + % + % + % % # + % @ + %   .   % % % % + % + % @ + % @ + + ",
"+ + % + % + % + % + % + % % %   .   % + % + % + + + % + = = . - - * % + ; > % % % + % + % % %   .   % + % + % + + + % % @ + + + ",
". . . . . . . . . . . . . . .   .   . . . . . , ' - - ) ! ~ { { ] ^ / ( _ : . . . . . . . . .   .   . . . . . . . . . . . . . . ",
"                                              , < { [ } { { { { | 1 2 3 4 5                                                     ",
"                                              % { { 6 7 { { { { 8 9 0 { 3 a b                                                   ",
". . . . . . . . . . . . . . . . . . . . . % c { { { d e f g h i j k l { { 4 m       . . . . . . . . . . . . . . . . . . . . . . ",
"  .   + @ # # $ $ $ $ $ $ $ $ $ $ $ $ $ $ n { { { e o p q r s t u v { { { { w x       . . @ # $ $ $ $ $ $ $ $ $ $ $ $ $ # # @ + ",
"  .   % # # # # # # # # # # # # # # # y z A { { { e B C D . E 2 F G ~ ~ 3 { H I             % y # # # # # # # # # # # # # # # % ",
"  .   % # # # # # # # # # # # # # # @ .   J { { { ~ K L M N k j O P Q R e { { } S             . c # # # # # # # # # # # # # # % ",
"  .   % # # # # # # # # # # @ # # c .     T { { { U V j W F X Y Z `  ...+.{ { } @.#.              % # # # # # # # # # # # @ # % ",
"  .   % # # # # # # # # # @ # @ c .       . { { $.%.&.u *.=.-.;.>.,.+.'.~ 3 { { ).@.                % # # # # # # # # # @ # @ % ",
"  .   % # # # # # # # # @ # @ c .         . !.} ~.r {.u ].b     ^./.(._.:.{ { { { 5                   . # # # # @ # # @ # @ @ % ",
"  .   % # # # # # # # @ # @ c             , - ) <.[.}.u |.1.2.3.u 4.j , 5.6.{ { 3 7.                    . # @ # @ @ @ @ @ @ # % ",
"  .   % # # @ # @ @ @ @ @ @ .                 8.    %.9.0.a.b.c.1 ^ d.1., 3 { { 7 e.                      . # @ # @ @ # # @ @ % ",
"  .   % @ + # + @ @ @ @ + .                         f.g.h.%.i.j j.7.k.[., l.{ { m.n.      , o.p.            * @ @ @ + @ @ + @ % ",
"  .   % @ % + @ + % @ + .                         q.r.s.t.u.v.w., x.y.z.= l.{ { A.b         B.C.            . c @ + @ % + @ + % ",
"  .   % % % % + % + % c                         D.E.F.^.G.H.I.J.K.L.{ 4   M.{ { % N.      O.P.Q.R.            * % @ % + % @ + % ",
"  .   % + % + % + + + .                         S.T.{ U.G.V.H.W.X.Y.{ 6.Z.`. +.+, , ,       ++O @+              * % + % + % % % ",
"  .   . . . . . . . .                         #+$+%+&+*+=+-+;+>+F ,+'+{ )+y , , g 6.!+'     ~+;.{+              . . . . . . . . ",
"  .                                           q.]+{ ^+j u u u u j 1 /+{ { { (+_+{ { { :+    <+[+}+                              ",
"                                              |+1+{ 2+4.u u u u j 3+{ { { { { { { { { 4+,   5+6+7+                              ",
". . . . . . . . . .                         8+1+6.9+0+1 u u u u a+b+{ { { ( ( { { { { c+= d+e+f+~+                . . . . . . . ",
"$ $ $ $ $ $ $ $ $ c                         g+h+6.{ 2+j u u u 1 a+i+{ { { . , , j+3 k+l+m+n+X X o+                . # $ $ $ $ $ ",
"# # # # # # # # # .                         p+q+r+s+t+j 1 u u j X 2 { { { . u+v+w+x+y+z+A+B+=+C+                    y # # # # # ",
"# # # # # # # # y .                           7+1+6.D+E+j u j j Q.F+{ { } . /.G+H+I+J+K+I+L+w #.                    @ # # # # # ",
"# # # # # # # # y .                             r+6.M+N+9 u 1 1 O+P+{ { Q+  1 R+}.S+T+K+U+K+e.                      @ @ # # # # ",
"# # # # # # # # @ .                           V+h { { W+O j 4.u X+{ { Y+Z+X+/.j 1 4.1 Z `+J+[.                      c # @ # # # ",
"# # @ # # # # @ @ .                            @e ~ .@+@@@{.a+j = { e #@$@%@&@j j 9 9 9 X.3.                        % @ # # # # ",
"@ # @ @ # @ # @ %                                 = *@=@-@;@>@,@= { +.'@)@!@~@{@{.X 4.9 ]@e+                        . # @ # @ @ ",
"@ @ @ @ @ # @ # %                                 = ^@9 /@(@>@_@:@<@[@}@|@1@-+2@;+G.1 3@4@7.                        . @ # @ @ @ ",
"+ @ # @ # + @ @ %                                 , 5@9 6@7@8@9@= /.u , #.0@a@b@X.;.c@d@7+                          . # @ @ + + ",
"@ + + @ + @ @ @ *             ,           ,     O.e@f@9 g@h@i@D+e@u >.o+  j.j@B+;.=+  7+                            * @ + + @ @ ",
"+ % + % + % + % c                             k@~+l@u m@N.5     e@^.j [.@.7+= -@:@=                                 % + % @ + + ",
"+ + % + % + % + %                             ].5 n@G.u b 5   /@@@1 j o@#.3.                                        . % @ + + + ",
". . . . . . . . . .                           o+7.p@= o@e.k@  = 2@u u -+w                                           . . . . . . "};
