/* XPM */
static char *_dce392e6f6a406de655efa2bb62a2cfZAQigL80pxfSHKsA[] = {
/* columns rows colors chars-per-pixel */
"64 64 183 2 ",
"   c #060501",
".  c #0A0602",
"X  c #070901",
"o  c #0C0B02",
"O  c #0E0D09",
"+  c #120E03",
"@  c #130F09",
"#  c #0F1003",
"$  c #141304",
"%  c #1A1504",
"&  c #171904",
"*  c #1C1A04",
"=  c #151309",
"-  c #1A160A",
";  c #171909",
":  c #1D1B0B",
">  c #161210",
",  c #1A1510",
"<  c #1D1B12",
"1  c #211607",
"2  c #211D05",
"3  c #20140A",
"4  c #221D0C",
"5  c #281D0C",
"6  c #231616",
"7  c #231D12",
"8  c #291E12",
"9  c #231E1A",
"0  c #1E2002",
"q  c #1F210B",
"w  c #1F2012",
"e  c #232204",
"r  c #292405",
"t  c #252905",
"y  c #2C2A05",
"u  c #25220C",
"i  c #2A240C",
"p  c #272808",
"a  c #2C2A0C",
"s  c #312E06",
"d  c #30260D",
"f  c #322C0D",
"g  c #313206",
"h  c #34310C",
"j  c #3F3B0C",
"k  c #262213",
"l  c #2B2413",
"z  c #272914",
"x  c #2D2913",
"c  c #272319",
"v  c #2B251A",
"b  c #2E291B",
"n  c #312514",
"m  c #322B15",
"M  c #3C2E14",
"N  c #30261A",
"B  c #332C1B",
"V  c #392E1C",
"C  c #2F3010",
"Z  c #353114",
"A  c #3A3415",
"S  c #3D3914",
"D  c #36311C",
"F  c #3A331C",
"G  c #3D391E",
"H  c #2D2920",
"J  c #342D21",
"K  c #3B2E24",
"L  c #363123",
"P  c #3B3422",
"I  c #3B3421",
"U  c #3D3520",
"Y  c #3F3720",
"T  c #3C3522",
"R  c #3D3522",
"E  c #3C3523",
"W  c #3F3422",
"Q  c #3D3623",
"!  c #3E3524",
"~  c #3B3422",
"^  c #3F3B20",
"/  c #3E3822",
"(  c #3F3921",
")  c #3E3924",
"_  c #34312C",
"`  c #3C352A",
"'  c #37382A",
"]  c #3F3828",
"[  c #3F392B",
"{  c #3F392B",
"}  c #3D3A33",
"|  c #423D12",
" . c #41371E",
".. c #40361C",
"X. c #433E18",
"o. c #443B1E",
"O. c #413A1D",
"+. c #413620",
"@. c #423624",
"#. c #443F22",
"$. c #413924",
"%. c #423A25",
"&. c #403926",
"*. c #433B26",
"=. c #413B25",
"-. c #443925",
";. c #423C24",
":. c #463F25",
">. c #443C27",
",. c #433B24",
"<. c #483E25",
"1. c #4A3D25",
"2. c #423628",
"3. c #42372A",
"4. c #413A2A",
"5. c #443B2A",
"6. c #413C28",
"7. c #443E28",
"8. c #443D2A",
"9. c #453E2B",
"0. c #443D2A",
"q. c #493C29",
"w. c #493E2A",
"e. c #493D2B",
"r. c #463E31",
"t. c #473D34",
"y. c #433E38",
"u. c #444712",
"i. c #434611",
"p. c #45411D",
"a. c #454023",
"s. c #454123",
"d. c #4C4127",
"f. c #46402A",
"g. c #46412C",
"h. c #4B4128",
"j. c #48402B",
"k. c #49432B",
"l. c #4C412B",
"z. c #4C452B",
"x. c #4A422F",
"c. c #4C412D",
"v. c #4C412F",
"b. c #4B432C",
"n. c #4C4B2A",
"m. c #554C23",
"M. c #544B24",
"N. c #524729",
"B. c #52442A",
"V. c #534A2E",
"C. c #56522D",
"Z. c #434230",
"A. c #4B4331",
"S. c #4B4633",
"D. c #4D4532",
"F. c #4E4934",
"G. c #44413A",
"H. c #4A473E",
"J. c #4F4E3C",
"K. c #514532",
"L. c #504937",
"P. c #514A37",
"I. c #534B34",
"U. c #584D34",
"Y. c #554D39",
"T. c #544C39",
"R. c #594E38",
"E. c #575135",
"W. c #57503E",
"Q. c #5A523D",
"!. c #65593F",
"~. c #514E49",
"^. c #545640",
"/. c #595240",
"(. c #595240",
"). c #5F5846",
"_. c #58544B",
"`. c #5B594C",
"'. c #5D5852",
"]. c #61594C",
"[. c #6A5F49",
"{. c #686556",
"}. c #6E6953",
/* pixels */
"= - [ S.m - - e * - % o % 4 u 2 : 4 4 4 m A -.n m N l n B v d j m.B.<.A D 8 N R D B * $ $ : 4 u B x 4 l k b D i 7 7 6.B 4 b 7 7 ",
"b l 4 m D x - p 2 4 % % 4 V B x x x B l m i x 8 V F o.S s m 2 S X.d r #.m 4 4 A D R l 4 u V R B F / $.L k k v b l B B % 7 l l x ",
"V $.x.A.m Z x 2 x D 4 D R V D m B $.R D m B 4 3 6 J R y g f a r e i * A A D D / n R I m B V V D Z ;./ l B I B V 7.7.B x r.I D a.",
"c.h.w.c.d h A l m D D F m D B V B R D B i B b J l 8 r h a y u.g * u m D m V b D >.U l m D V F D F h.f.x m m m >.A.P.W.P./.Y.Y.z.",
"w.l.+.w.m e a 4 m u m A m m B L 4 4 l % % : B x e x a e * p g * e x u A  .! 4.7.U I l D V B 5.R m D 7.$.D I h.$.B [ I x m B ! 2.",
"x B h.>.D m m l $ & 2 x m m I 4 7 7 B k v b I 4 u 2 i 4 4 p x & 0 p e m V.x.R F L V b B ] B * % : @ 4 I ! ;.>.m V 4 4 D l 4 V v ",
"4 - B e * 4 * D l 4 x l m x i 4 - - 7 k 7 k x m K D 2 l * t e t e * * p A m R ..7.I D l x.R 4 x k : % D G Z S p.D * % x u : k $ ",
"- + : e * $ % u ; : l * u x i l - $ : $ - 7 l m B D m b $ e p u $ $ : & u U m #.A.I x % m i D U a.O.Z Z f h h f f 2 4 : - : - % ",
"+ $ : : ; = O $ * u - % 4 4 7 4 - : < o 7 7 4 4 Z G x k - $ * u & : $ $ u m S g.g.b 7 $ i i i ! $.f h A Z a e * $ % : : 2 u - . ",
"< + X X o $ $ - : : $ - $ * & e u : 4 % : l 4 B f y i & $ = z $ $ D a * a r Z h.I u 4 2 u 4 2 F  .f r 4 z p p e $ $ % $ 2 - = 4 ",
"= $ $ O $ $ - : $ $ ; ; $ $ & p x x u 4 l k x l m S 4 & u 7 p - $ p Z D A * i D.F i i % 4 4 4 x F Z y a u % * - ; : 4 4 & $ o u ",
"e * ; = ; - ; = O X O O $ ; $ $ u l x u I B B D I m 4 i x l e u : u u ~ Z * m T.V.m x % * & u u 4 a Z a.p & u * $ * i 2 : $ ; $ ",
"e ; X = : ; ; $ o O = $ X $ $ = $ % $ : l l D F.D % a 4 l x : : 4 L 7 v l e h D V.F d 2 $ $ * 2 * : u 4 $ + i e : 4 * : = = + o ",
"X     $ % - $ $ $ # $ $ $ : u u k : + $ + o 4 l l - x B [ i : u ~ ~ b : , x h a f r 2 $ % u u * : : - $ - - u e * % % % ,   + , ",
"o O $ ; - : $ # $ $ & $ ; $ u * ; + : $ $ - - $ $ c L L b m V u ` x b k 9 / i e y 2 ; % e e * - v : - & * % $ * e $ % : @     > ",
"$ & x x l : ; = * * $ + $ = - $ ; $ $ - = : : - ; k ~ b $ 7 k b B A c v B n.l % e p - : * e * 4 i + : $ : - : e p + - $ X o o O ",
"$ e x b 4 % + O $ & O X # & ; o O = & i l 8 H + 4 k = = ; = : = 7 B z k ~ N 4 & : : * ; < & e k * * : - : % * e 0 $ ; o X O $ $ ",
"= $ $ 7 ; $ ; - : % = $ o * < % & & i G h.D 4 $ l L 7 . O : : 7 - $ q k l % 4 : * $ $ ; $ : u e e a 2 * : : : : $ : w o $ : - ; ",
"O : % 7 k : * % u u l 4 % z ; * p i a A E.h.x D B J c $ , ; c v 7 $ : c : l x 4 q q q * e 4 7 i a i a m 4 k 7 $ < k $ + - l l % ",
"$ $ * 4 : x x $ 4 x m l l b $ * u 4 * l U 7.x.2.l v - < : = 7 : = < ' 7 : 4.l $ p a u $ u 4 i a u % i 2 * u u : c : o $ k x k % ",
": 4 : - - l u + 4 u 4 % * ; $ : 4 $ + k l 4 x - B ~ 7 $ - < v : = H k b B V u 4 a ;./ B l % * * $ 4 l 4 D D * k : $ & $ l 7 o $ ",
"O o + 7 : : u + % : * $ 4 $ o ; ; * 4 x D D B l 4 7 J < c c L k = b c l ~ $.* 4 r 2.Y.E.F + * % : : * x I B 4 7 : k k ; 7 $ O O ",
"$ 7 - k k : * : p u 2 $ e * : k w % i  .-.@.! b.~ k v v : < k l c = J 8 k u m 2 e i D B b $ l e % o : V V B l 7 l l 7 - $ o $ X ",
"2 i 2 : l x u u p * 2 : 2 * * $ o 4 d M +.5.W $.4.k $ : - < 7 7 k c b v 4 u u l $ e * o % e 4 + + - < - b B 4 x v 4 l 4 7 7 X $ ",
"* - < 7 l a D ` B 2 % 4 * + 4 7 * x A.w.B.l.K.v B l I B 4 b 7 $ = + : l c < ; o o : : % 2 4 % - - = 7 i D 7 4 V b l B 7 b l : 4 ",
"4 : u x 4 I B m m 2 2 % + - J $ v 7 V S.Q.[. .;.S.8 T.4.g.g.S.V < 7 : o o $ ; u $ u % - p r % e $ - 7 [ B % 4 l l 8 7 4 l 4 : l ",
"k l u m b b B a r d 4 : - = : 4 V 9.l k l x B D i @.F.P.7.F f./ #.b.4.l = = + 7 u p & l * * * 2 - : c 7 - 7 b v v l 4 : : 7 b k ",
"B 4 % : x u m U d r 2 % % : 4 B c.x.$.4 : + : 4.D.x.D.P.I.I.>.h.D V x.! 7 l % b l - $ x ; % 4 3 : * B @ : B B b 7 8 4 7 7 b b : ",
"b 7 = c u l B B 2 r a e * 4 v 8 2.T.k $ 7 - : D E.Y.h.I.Q.D.K.P.K W n I.m % 4 4 , % o ; u $ % r 4 4 D 4 8 m D b 4 7 : 4 J L b k ",
"% k : v 7 k l % e Z * * 2 4 7 3 @.g.$ : < < $ k / b.D.Y.x.7.w.K.I m V ;.F u 9.B 4 + & $ k $ * 4 1 B B % 4 n B n b v 4 : 8 8 - + ",
"4 B U l k v x a 2 e & u % + : 4 m x $ $ - : - < U 4 B $.9.P.R.I.K l 4 F m a Z G A % e * - $ $ . % 7 l 4 D V 1 5 v 7 v N b 7 7 $ ",
"D >.x.V l 4 F A a 2 * $ X X $ ; : , @ - B D x z v l B l m F -.d.r m W v x D 2 & 4 $ u % X @ o = - = - r / I v l 8 4 l B J 4 l b ",
"M.U.-.$.V 7 N +.V B - $ $ : 4 i b b 7 v k V B u v l ] B 4 k 7 7 - - ] ] m 7 = 0 * * = X ; & 2 u 4 4 4 4 B D -.x n v J B B l r | ",
"| d r  .a * 2 Z D R x * k b I m F G 7.B l k b v x B x * k b b x b u $ B 9.k % p e : - $ l B D D x x x l m i n 5 n F <...g d i S ",
"e i i D D D U #.n F R x B x B D m #.F i x U x D f.7.B l 9.I F #.J 7.;.x.f Z B : x B i B ! I @.m D 7.R V m B 4 % 6 ` $.d g a m e ",
": u V B x ~ b B 5.R i m B B V I R 7.f.x m m D x.D.D.W.T./.Y.P.h.7.#.>.e.m f G 4 D m A ;.D ! V B m R D B l B l x x 8 r A a y i.g ",
"p Z r G ..$.$.7.I I l B x m 7.! B B 7.$.D U S.A.B R U x m B ! 4.+.<.;.D.m e r 4 x i f A B D B B 4 4 l % % * i i e i d r % i y e ",
"0 a e f V.>.R F V V B l U m 4 % : $ % I R ;.>.m V 4 4 B i u J v B B >. .D A D 7 - % 2 m / m I u 8 7 B k l b B r 4 2 i 7 * p i & ",
"p * - u U B $.F 7.U ~ k x.D 4 x l : 2 m  .f S p.m * * x k 4 4 @ % % B i % : % F z * x i m m i : - $ 7 k 7 7 x m J A 2 l * t t t ",
"$ $ : - q U m #.z.! B 4 B i D U #.;.Z A f Z h a f e : : : : - 7 7 + 2 e % - $ u - $ 4 4 2 m x l - $ ; - - 4 l x m D x b $ e e 0 ",
"* - $ $ e B S 9.7.J k $ x i i ~ $.d h A x a e 4 ; $ : : * u , + ; $ : q $ = @ $ % % % % u 4 l 4 : : < o k v : k Z A x u - $ $ - ",
"; F.i * a i Z x.2.x 4 4 4 4 2 G O.h r 4 4 p e e $ $ % % 2 - ; v < + X X $ $ $ $ $ : $ * $ - % e u : 4 $ k b 4 B h s u & $ = u + ",
": ^.Z Z A % r F.$.i l * % 4 4 x A Z a i * & * : $ : 4 4 * : $ u = ; $ o = $ - $ X $ $ ; $ & $ p x x u 4 b l x l m A 4 * u $ * : ",
"k J.z D Z 2 f P.V.m x % 4 % i u u a Z G u % u - $ * i * : : : $ 0 u $ $ ; - $ = = X O O = ; $ $ e 4 k x U B B D B m l u u 4 p u ",
"u `.v c u e Z A I. .a * $ $ : e * u * 4 $ $ i e 4 4 * 4 = @ + o 0 & X - : $ # = - + = + o $ - = $ o % u k l D F.D % i 4 k b : * ",
"Z.{.v - : D B p f a 2 $ % k 4 4 k 4 % $ - % e e * $ % : ,   + , o   . $ ; + $ ; = o $ $ $ : u 2 : : - $ + + 4 z k 4 i k 4.Z - u ",
"[ `.L l 7 D k e y 2 % % e e % - l : % % * $ % e 2 % % : O X X > O O = $ $ - : ; $ $ & $ $ $ 2 % - - : $ $ : ; ; $ 9 B J I m B l ",
"L _.7 l ~ n.l $ e p - : * * 4 : 2 $ % % - - - e p + - =   X o O O - i x : u : $ * : $ o $ $ ; + : : $ = = ; - - ; 4 L ~ % 4 v b ",
"k `.k k ` v u - - 4 * * : % a l & 4 4 % : % * e 2 * : o X + $ $ $ u x l 7 : + o - & o X O $ O # < $ - r l c v $ : ; - ; = , - - ",
"< H.4 4 : % u : * $ $ $ $ - x 2 2 p 2 * : 4 : : % : < o $ 7 $ ; = $ $ l 7 $ & $ : % $ $ X $ < : - $ a #.b.D 4 $ l B c o + - < : ",
"c G.; u % 4 B : 4 p * q 0 x : u a p i x u k 7 $ - - $ o : l k % O ; $ b v * 2 % 4 u l 4 $ 2 : u p u r A Y.a.B D B [ k + < - 7 b ",
": _ L 4 7 4.u % a i u % u x l i u % l 2 * k u % : - X $ k l k % # $ 4 c : x b + 2 x B k u x % : u 2 : x G 9.b.` b B - < < = 7 : ",
", } k b b U 2 4 y / 7.x B : * * % % l u m D 4 * $ - - - l 4 + = : k k - - b 4 + 4 u 4 $ $ * $ : : $ $ k l 4 l 7 L ~ 7 $ - : v : ",
"- ~.v l J ] 2 4 d ` W.C.D + : % : : * x U B % 4 4 u k : 4 $ + = + $ - < - : 4 $ % * : - * ; o - & : 2 l B D B D k 7 b : c v J b ",
"b y.L k 7 u x 4 e u B x b % i p - + % B ~ B 4 7 x l 7 - $ o o   + : : c l * * 2 u u 2 $ e : - c w % r ;.-.+.4.b.` : b b : : v k ",
"J '.v k k u e z ; e & + % e 4 + + - : : B V l x l 4 c < 7 < o # 4 l 4 7 l x u u i 2 e % e * 4 $ O 4 n M M K 5.] [ l - : = 7 7 4 ",
"< } k k w k $ + o : + - 2 2 - % - @ 7 4 ~ v 4 B x l B l l l 4 % * - 9 < u Z m [ B 4 4 4 % + 4 7 : u D.1.1.l.K.n V u ! B 4 b 7 - ",
", } - o + + : u = * % : e r : i : - 7 4.~ % 4 l l l 7 4 8 4 % 7 4 * u x 4 B D m m r 4 % $ - b $ i x m e.U.[.F $.S.4 T.g.6.g.A.! ",
"b.}.6.c @ @ $ k l * & u e * * % % 4 l b 7 4 x x l l 4 - 3 7 7 7 l u i x x B B r r m 4 : - = : 4 V 9.4 % l x B I l ! P.F.7.F ;.f.",
"I ).A.` 4 b % m u * + z : $ 2 - : * m - : B V b 7 l 4 7 l b v : B 4 % 4 l l x B f r 2 2 + : 4 B l.A.4.: : $ 4 [ D.D.x.I.Y.h.x.z.",
"J ].B T.B * u u , $ o : u $ % 5 4 u F 4 7 B I b 4 7 : 7 J J v k x 7 = v 4 u l J e a a 2 * 4 8 8 -.c.l 7 7 $ : L E.I.z.P.x.I.Y.P.",
"2.].D ;.F 2 g.B 4 + $ $ u % * u 4 x B % 4 B m x N l 4 4 l 4 - o % k 7 b k : k u e C 2 * 2 4 4 3 V 7.7 - < < - 7 F F.x.D.x.x.7.K.",
"~ t.4 I m r m D A - p & - $ + o : k u 2 V V 3 l v 4 N N b 7 7 + 4 V D l l 4 D m e e * i $ $ : - x B $ = = 4 % 4 U 4 B V F.Y.K.I.",
"e x I l B D % : 4 $ e % O o . $ - - % r >.I v l 8 3 x b B 7 v b D $.x.B 4 l $.A i e 2 $ o o $ $ 4 9 @ - H V B x v k 7 B D D h.z."
};
