/* XPM */
static char * test_xpm[] = {
"64 64 175 2",
"  	c #000000",
". 	c #28200C",
"+ 	c #4C0000",
"@ 	c #403018",
"# 	c #543C1C",
"$ 	c #5C4020",
"% 	c #302410",
"& 	c #271F0C",
"* 	c #261E0B",
"= 	c #251D0B",
"- 	c #241B0A",
"; 	c #010000",
"> 	c #030101",
", 	c #060202",
"' 	c #080202",
") 	c #0A0303",
"! 	c #0B0303",
"~ 	c #0C0404",
"{ 	c #0D0404",
"] 	c #020101",
"^ 	c #090303",
"/ 	c #0E0404",
"( 	c #100505",
"_ 	c #010102",
": 	c #130806",
"< 	c #010101",
"[ 	c #C2C5CC",
"} 	c #C3C5CC",
"| 	c #C4C5CC",
"1 	c #C1C6CC",
"2 	c #020203",
"3 	c #010202",
"4 	c #020202",
"5 	c #C2C4CB",
"6 	c #C2C4CC",
"7 	c #C3C4CC",
"8 	c #C2C5CB",
"9 	c #51371B",
"0 	c #593E1F",
"a 	c #4F381A",
"b 	c #C3C5CD",
"c 	c #E2667B",
"d 	c #E2677A",
"e 	c #C2C6CE",
"f 	c #D7DAE3",
"g 	c #D6D9E2",
"h 	c #D6D9E3",
"i 	c #010201",
"j 	c #E1677B",
"k 	c #E2677B",
"l 	c #C2C5CD",
"m 	c #2D1D0D",
"n 	c #412D15",
"o 	c #4C3619",
"p 	c #C2C6CD",
"q 	c #E2667C",
"r 	c #E3667C",
"s 	c #E1677C",
"t 	c #D7D9E3",
"u 	c #D7D9E4",
"v 	c #DF677C",
"w 	c #E2677C",
"x 	c #C3C3CD",
"y 	c #221409",
"z 	c #3A2712",
"A 	c #362410",
"B 	c #C3C6CE",
"C 	c #E1667B",
"D 	c #C1C5CC",
"E 	c #C2C6CC",
"F 	c #010103",
"G 	c #D7DBE2",
"H 	c #D8DAE3",
"I 	c #C3C6CD",
"J 	c #D8DBE3",
"K 	c #D7DAE2",
"L 	c #030305",
"M 	c #E1667C",
"N 	c #C4C4CD",
"O 	c #1A0E07",
"P 	c #291D0E",
"Q 	c #000102",
"R 	c #C1C4CC",
"S 	c #C4C6CD",
"T 	c #C4C7CE",
"U 	c #C3C4CD",
"V 	c #E1667D",
"W 	c #C1C5CB",
"X 	c #C3C6CC",
"Y 	c #000202",
"Z 	c #C4C7CF",
"` 	c #E1677D",
" .	c #C4C4CB",
"..	c #2C1F0F",
"+.	c #E2657C",
"@.	c #E1657B",
"#.	c #FEFFFF",
"$.	c #FFFFFF",
"%.	c #FEFEFE",
"&.	c #E0667C",
"*.	c #E2657A",
"=.	c #160B07",
"-.	c #3E2E17",
";.	c #312412",
">.	c #130907",
",.	c #C3C6CB",
"'.	c #C2C5CE",
").	c #FDFEFE",
"!.	c #FEFFFE",
"~.	c #1B1008",
"{.	c #523A1B",
"].	c #382915",
"^.	c #290404",
"/.	c #010100",
"(.	c #000101",
"_.	c #000100",
":.	c #110607",
"<.	c #430101",
"[.	c #3C2D16",
"}.	c #340303",
"|.	c #C1C5CD",
"1.	c #190505",
"2.	c #271C0D",
"3.	c #DF657C",
"4.	c #DF667B",
"5.	c #120905",
"6.	c #170C07",
"7.	c #3D0202",
"8.	c #480101",
"9.	c #310303",
"0.	c #A6A9AE",
"a.	c #000201",
"b.	c #A6A9AF",
"c.	c #20150A",
"d.	c #221A0A",
"e.	c #170D07",
"f.	c #A7AAAF",
"g.	c #000203",
"h.	c #A7A9AF",
"i.	c #010203",
"j.	c #010104",
"k.	c #A5A9AE",
"l.	c #020303",
"m.	c #120805",
"n.	c #A6AAB0",
"o.	c #110709",
"p.	c #A6AAAF",
"q.	c #A6AAAE",
"r.	c #110606",
"s.	c #473017",
"t.	c #1C0F08",
"u.	c #D9DCE4",
"v.	c #32210F",
"w.	c #010303",
"x.	c #4A3418",
"y.	c #DADDE4",
"z.	c #DADCE4",
"A.	c #010204",
"B.	c #23170C",
"C.	c #C2C6CB",
"D.	c #010304",
"E.	c #DADCE5",
"F.	c #3A2B15",
"G.	c #261A0D",
"H.	c #C3C5CB",
"I.	c #110909",
"J.	c #2F230F",
"K.	c #010205",
"L.	c #120807",
"M.	c #22170A",
"N.	c #261A0C",
"O.	c #3A0202",
"P.	c #A7A9AE",
"Q.	c #140B06",
"R.	c #170F05",
"  .   + @ # # $ $ $ $ $ $ $ $ $ $ $ $ $ $ $ $ $ $ $ $ $ # # @ +   .   + @ # # $ $ $ $ $ $ $ $ $ $ $ $ $ $ $ $ $ $ $ $ $ # # @ + ",
"  .   % # # # # # # # # # # # # # # # # # # # # # # # # # # # %   .   % # # # # # # # # # # # # # # # # # # # # # # # # # # # % ",
"  .   % # # # # # # # # # # # # # # # # # # # # # # # # # # # %   .   % # # # # # # # # # # # # # # # # # # # # # # # # # # # % ",
"  .   % # # # # # # # # # # @ # # # # # # # # # # # # # # @ # %   .   % # # # # # # # # # # @ # # # # # # # # # # # # # # @ # % ",
"  .   % # # # # # # # # # @ # @ # # # # # # # # # # # # @ # @ %   .   % # # # # # # # # # @ # @ # # # # # # # # # # # # @ # @ % ",
"  .   % # # # # # # # # # @ # @ # # # # # # # # # # # # @ # @ %   .   % # # # # # # # # # @ # @ # # # # # # # # # # # # @ # @ % ",
"  .   % # # # # # # # # @ # @ # # # # @ # # # # @ # # @ # @ @ %   .   % # # # # # # # # @ # @ # # # # @ # # # # @ # # @ # @ @ % ",
"  .   % # # # # # # # @ # @ # @ # @ # @ @ # @ # @ @ @ @ @ @ # %   .   % # # # # # # # @ # @ # @ # @ # @ @ # @ # @ @ @ @ @ @ # % ",
"  .   % # # @ # @ @ @ @ @ # @ # @ @ @ @ @ @ # @ # @ @ # # @ @ %   .   % # # @ # @ @ @ @ @ # @ # @ @ @ @ @ @ # @ # @ @ # # @ @ % ",
"  .   % @ + # + @ @ @ @ + @ # @ @ + @ # @ # + @ @ @ + @ @ + @ %   .   % @ + # + @ @ @ @ + @ # @ @ + @ # @ # + @ @ @ + @ @ + @ % ",
"  .   % @ % + @ + % @ + @ + @ + + @ + + @ + @ @ @ + @ % + @ + %   .   % @ % + @ + % @ + @ + @ + + @ + + @ + @ @ @ + @ % + @ + % ",
"  .   % % % % + % + % @ % @ + % @ + % + % + % + % @ % + % @ + %   .   % % % % + % + % @ % @ + % @ + % + % + % + % @ % + % @ + % ",
"  .   % + % + % + + + % + % % @ + + + % + % + % + % + % + % % %   .   % + % + % + + + % + % % @ + + + % + % + % + % + % + % % % ",
"  .   . . . . . . . . . . . . . . . . . . . . . . . . . . . . .   .   . . . . . . . . . . . . . . . . . . . . . . . . . . . . . ",
"                                                                                                                                ",
"                                                                                                                                ",
". . . . . . . . . . . . . . . . . . . . . . . . . . . . . . . . . . . . . . . . . . . . . . . . . . . . . . . . . . . . . . . . ",
"$ $ $ $ $ $ $ $ $ $ $ # # @ +   .   + @ # # $ $ $ $ $ $ $ $ $ $ $ $ $ $ $ $ $ $ $ $ $ # # @ +   .   + @ # # $ $ $ $ $ $ $ $ $ $ ",
"# # # # # # # # # # # # # # %   .   % # # # # # # # # # # # # # # # # # # # # # # # # # # # %   .   % # # # # # # # # # # # # # ",
"# # # # # # # # # # # # # # %   .   % # # # # # # # # # # # # # # # # # # # # # # # # # # # %   .   % # # # # # # # # # # # # # ",
"# # # # # # # # # # # # @ # %   .   % # # # # # # # # # # @ # # # # # # # # # # # # # # @ # %   .   % # # # # # # # # @ # # # # ",
"# # @ # # # # @ # # @ # @ @ %   .   % # # # # # # # # @ # @ # # # # @ # # # # @ # # @ # @ @ %   .   % # # # # # # # # @ # # # # ",
"@ # @ @ # @ # @ @ @ @ @ @ # %   .   % # # # # # # # @ # @ # @ # @ # @ @ # @ # @ @ @ @ @ @ # %   .   % # # # # # # # @ # @ # @ @ ",
"# # # # # # # # # # # @ # @ %   .   % # # # # # # # # # @ # @ # # # # # # # # # # # # @ # @ %   .   % # # # # # # # # # @ # # # ",
"# # @ # # # # @ # # @ # @ @ %   .   % # # # # # # # # @ # @ # # # # @ # # # # @ # # @ # @ @ %   .   % # # # # # # # # @ # # # # ",
"@ # @ @ # @ # @ @ @ @ @ @ # %   .   % # # # # # # # @ # @ # @ # @ # @ @ # @ # @ @ @ @ @ @ # %   .   % # # # # # # # @ # @ # @ @ ",
"@ @ @ @ @ # @ # @ @ # # @ @ %   .   % # # @ # @ @ @ @ @ # @ # @ @ @ @ @ @ # @ # @ @ # # @ @ %   .   % # # @ # @ @ @ @ @ # @ @ @ ",
"+ @ # @ # + @ @ @ + @ @ + @ %   .   % @ + # + @ @ @ @ + @ # @ @ + @ # @ # + @ @ @ + @ @ + @ %   .   % @ + # + @ @ @ @ # @ @ + + ",
"@ + + @ + @ @ @ + @ % + @ + %   .   % @ % + @ + % @ + @ + @ + + @ + + @ + @ @ @ + @ % + @ + %   .   % @ % + @ + % @ + @ + + @ @ ",
"+ % + % + % + % @ % + % @ + %   .   % % % % + % + % @ % @ + % @ + % + % + % + % @ % + % @ + %   .   % % % % + % + % @ + % @ + + ",
"+ + % + % + % + % + % + % % %   .   % + % + % + + + % + % % @ + + + % + % + % + % + % + % % %   .   % + % + % + + + % % @ + + + ",
". . . . . . . . . . . . . . .   .   . . . . . . . . . . & * = - - - - = * & . . . . . . . . .   .   . . . . . . . . . . . . . . ",
"                                                ; > , ' ) ! ~ { { { { ~ ! ) ' , > ;                                             ",
"                                            ] , ^ ~ / ( ( ( ( ( ( ( ( ( ( ( ( / ~ ^ , ]                                         ",
". . . . . . . . . . . . . . . . . . . _ _ _ _ _ : ( ( ( ( ( ( ( ( ( ( ( ( ( ( ( _ _ _ _ _ * . . . . . . . . . . . . . . . . . . ",
"  .   + @ # # $ $ $ $ $ $ $ $ $ $ $ < [ } } | 1 _ ( ( ( ( 2 _ 3 3 3 _ ( ( ( ( 4 [ 5 6 7 8 < 9 0 $ $ $ $ $ $ $ $ $ $ $ $ # # @ + ",
"  .   % # # # # # # # # # # # # # a 3 b c c d e < ( < 3 3 f g h h h h 3 i < ( _ [ j k k l 3 m n a # # # # # # # # # # # # # # % ",
"  .   % # # # # # # # # # # # # o _ p q r r s l < < _ t u l l l l l l t t _ _ _ } v q r w x < y z o # # # # # # # # # # # # # % ",
"  .   % # # # # # # # # # # @ o A < B q r C D E F G H I l l l l l l l l B J K L E l M r k N _ ( O A o # # # # # # # # # # @ # % ",
"  .   % # # # # # # # # # @ o P O < B q r C D F g l 3 Q R l l l l l l l Q Q S K Q T M r k U _ ( ( O A o # # # # # # # # @ # @ % ",
"  .   % # # # # # # # # @ o P O ( _ I V r C W _ [ l I X [ l l l l l [ [ [ p l l Y Z M r `  ._ ( ( ( O P o # # # @ # # @ # @ @ % ",
"  .   % # # # # # # # @ a ..O ( ( ( < [ +.@.8 _ [ l [ #.$.#.[ l l l %.%.%.6 l l Y T &.*.[ _ ( ( ( ( ( =...a @ # @ @ @ @ @ @ # % ",
"  .   % # # @ # @ @ @ -.;.y ( ( ( ( >.3 ,.'.l _ [ l [ #.$.#.[ l l l ).%.!.6 l l Y T '.'.i ( ( ( ( ( ( ( ~.;.{.@ # @ @ # # @ @ % ",
"  .   % @ + # + @ @ @ ].^.( ( ( ( ( ( ( < /.(.< X l [ #.< _ I l l [ < < #.6 l [ (.(./._.:.( ( ( ( ( ( ( ( m <.@ @ @ + @ @ + @ % ",
"  .   % @ % + @ + % [.}.=.( ( ( ( ( ( ( ( ( ( ( < b [ #._ _ p b I |._ _ #.6 [ 3 ( ( ( ( ( ( ( ( ( ( ( ( ( 1...[.@ + @ % + @ + % ",
"  .   % % % % + % + 2.~.( ( ( ( ( ( ( ( ( ( ( ( < I [ W } b |.3.4.b b S [ [ E 3 5.( ( ( ( ( ( ( ( ( ( ( ( ( 6.7.% @ % + % @ + % ",
"  .   % + % + % + 8.9.( ( ( ( ( ( ( ( ( ( ( ( < 0.l a.(.Y I I l |.b l Y a.Y l b.< ( ( ( ( ( ( ( ( ( ( ( ( ( ( c.8.% + % + % % % ",
"  .   . . . . . . d.e.( ( ( ( ( ( ( ( ( ( ( ( (.f.l l I S [ g.} I F I I B l l f.(.( ( ( ( ( ( ( ( ( ( ( ( ( ( e.d.. . . . . . . ",
"  .             ; ^ ( ( ( ( ( ( ( ( ( ( ( ( ( ( 3 h.[ i.3 I } i._ X p j.3 I k.l.( ( ( ( ( ( ( ( ( ( ( ( ( ( ( ( ^ ;             ",
"                > ~ ( ( ( ( ( ( ( ( ( ( ( ( ( ( m.3 n.b.D l l l l l l [ 0.0.i o.( ( ( ( ( ( ( ( ( ( ( ( ( ( ( ( ~ >             ",
". . . . . . . . d.e.( ( ( ( ( ( ( ( ( ( ( ( ( ( ( ( < < p.p.p.p.q.q.q.p.< < r.( ( ( ( < < < ( ( ( ( ( ( ( ( ( ( e.d.. . . . . . ",
"$ $ $ $ $ $ $ $ s.t.( ( ( ( ( ( ( ( ( ( ( ( ( ( ( ( ( ( i.i.i.i.i.i.3 i.( ( ( ( ( ( < < ( ( ( ( ( ( ( ( ( ( ( ( t.s.$ $ $ $ $ $ ",
"# # # # # # # {.z ( ( ( ( ( ( ( ( ( ( ( ( ( ( ( ( ( ( _ [ [ [ [ [ l [ [ _ ( ( ( ( ( < ( ( ( ( ( ( ( ( ( ( ( ( ( ( z {.# # # # # ",
"# # # # # # # a A ( ( ( ( ( ( ( ( ( ( ( ( ( ( ( ( ( < E [ l l u.u.l l [ } 3 ( ( ( ( < ( ( ( ( ( ( ( ( ( ( ( ( ( ( A a # # # # # ",
"# # # # # # # o v.( ( ( ( ( ( ( ( ( ( ( ( ( ( ( ( ( < [ w.X u.u.u.u.X i.S _ ( ( ( ( < ( ( ( ( ( ( ( ( ( ( ( ( ( ( v.o @ # # # # ",
"# # # # # # # x.m ( ( ( ( ( ( ( ( ( ( ( ( ( ( ( ( ( < } [ i.y.u.u.y.i.X I 3 ( ( ( ( < ( ( ( ( ( ( ( ( ( ( ( ( ( ( m x.# @ # # # ",
"# # @ # # # # ].m ( ( ( ( ( ( ( ( ( ( ( ( ( ( ( ( ( ( _ 8 [ F z.u.A.b E _ ( ( ( ( < < ( ( ( ( ( ( ( ( ( ( ( ( ( ( m x.@ # # # # ",
"@ # @ @ # @ # ].B.( ( ( ( ( ( ( ( ( ( ( ( ( ( ( ( _ _ C.D.8 _ E.u._ X i.X _ _ ( ( < ( ( ( ( ( ( ( ( ( ( ( ( ( ( ( m ].# @ # @ @ ",
"@ @ @ @ @ # @ x.B.( ( ( ( ( ( ( ( ( ( ( ( ( ( ( < 8 [ l [ i.3 E.u.Q _ X l [ 8 < < < ( ( ( ( ( ( ( ( ( ( ( ( ( ( ( B.].@ # @ @ @ ",
"+ @ # @ # + @ F.G.( ( ( ( ( ( ( ( ( ( ( ( ( ( ( < b l l l l u.u.u.u.I p l l [ 3 ( ( ( ( ( ( ( ( ( ( ( ( ( ( ( ( ( G.F.# @ @ + + ",
"@ + + @ + @ @ [.9.( ( ( ( ( ( ( ( ( ( ( ( ( ( ( ( 3 H.l 3 C.l u.u.l [ i.l [ < I.( ( ( ( ( ( ( ( ( ( ( ( ( ( ( ( ( P 8.@ + + @ @ ",
"+ % + % + % + J...( ( ( ( ( ( ( ( ( ( ( ( ( ( ( ( ( _ } [ K.[ [ D D i.} l F L.( ( ( ( ( ( ( ( ( ( ( ( ( ( ( ( ( ( M.-.+ % @ + + ",
"+ + % + % + % + N.1.( ( ( ( ( ( ( ( ( ( ( ( ( ( _ _ ,.l n.f.i.< < _ f.n.l B 3 _ ( ( ( ( ( ( ( ( ( ( ( ( ( ( ( ( 1.O.% % @ + + + ",
". . . . . . . . d.e.( ( ( ( ( ( ( ( ( ( ( ( ( _ P.0.k.0._ < Q.( ( R.< _ 0.b.f.f.< ( ( ( ( ( ( ( ( ( ( ( ( ( ( ( e.d.. . . . . . "};
