/* XPM */
static char *_14d04f27ed14e838a3730b4595015446KaGqF8LXpfyozqB[] = {
/* columns rows colors chars-per-pixel */
"64 64 245 2 ",
"   c #19050F",
".  c #160B0D",
"X  c #1A0C0E",
"o  c #161309",
"O  c #1C130D",
"+  c #1C0614",
"@  c #1D0B12",
"#  c #1A0814",
"$  c #1F0618",
"%  c #1F1311",
"&  c #1D1810",
"*  c #20120F",
"=  c #220616",
"-  c #230C15",
";  c #24061B",
":  c #2B061D",
">  c #250B1B",
",  c #2A0C1C",
"<  c #30071F",
"1  c #300B1F",
"2  c #231215",
"3  c #261319",
"4  c #2A121C",
"5  c #271919",
"6  c #31111F",
"7  c #2C0721",
"8  c #270B20",
"9  c #2C0C22",
"0  c #350826",
"q  c #320C24",
"w  c #350C2B",
"e  c #3A0C2C",
"r  c #2D1222",
"t  c #2E1426",
"y  c #321225",
"u  c #351827",
"i  c #34132A",
"p  c #3A132D",
"a  c #3B1A2D",
"s  c #3C0D33",
"d  c #3B0B35",
"f  c #3C1333",
"g  c #3D1B32",
"h  c #3F1638",
"j  c #3E2033",
"k  c #420E2D",
"l  c #42152D",
"z  c #420C34",
"x  c #490D35",
"c  c #430C3B",
"v  c #4B0D3C",
"b  c #500D3A",
"n  c #421434",
"m  c #4B1235",
"M  c #431B35",
"N  c #44133A",
"B  c #4A143C",
"V  c #441A39",
"C  c #4C1B3A",
"Z  c #53183C",
"A  c #46233A",
"S  c #55203F",
"D  c #460C41",
"F  c #4C0D42",
"G  c #530E43",
"H  c #530D4B",
"J  c #590E49",
"K  c #4C1343",
"L  c #4C1646",
"P  c #4D1C42",
"I  c #541342",
"U  c #5A1746",
"Y  c #531D42",
"T  c #5B1D45",
"R  c #54134B",
"E  c #5B124C",
"W  c #541B4D",
"Q  c #5A0E53",
"!  c #5C1754",
"~  c #661649",
"^  c #63154C",
"/  c #641C4A",
"(  c #6A1B4D",
")  c #620F58",
"_  c #631354",
"`  c #691455",
"'  c #6E1C51",
"]  c #64155B",
"[  c #6B145C",
"{  c #641B5C",
"}  c #731D59",
"|  c #4D2341",
" . c #532444",
".. c #592646",
"X. c #5C2549",
"o. c #5C2B4C",
"O. c #57324B",
"+. c #5D2455",
"@. c #5E2D51",
"#. c #5F3352",
"$. c #63244D",
"%. c #6A214E",
"&. c #63294E",
"*. c #6D2353",
"=. c #642957",
"-. c #6A2C55",
";. c #722456",
":. c #752559",
">. c #79245C",
",. c #742B5B",
"<. c #7A2A5D",
"1. c #633355",
"2. c #6C335A",
"3. c #68395A",
"4. c #73335D",
"5. c #78315F",
"6. c #6B0F64",
"7. c #6B1465",
"8. c #6A1A65",
"9. c #741664",
"0. c #731A6C",
"q. c #791969",
"w. c #791C75",
"e. c #6B2564",
"r. c #782467",
"t. c #7C2E61",
"y. c #6E3566",
"u. c #7C3363",
"i. c #733B62",
"p. c #773966",
"a. c #7C3A65",
"s. c #7A2676",
"d. c #783473",
"f. c #67405B",
"g. c #744568",
"h. c #7C426B",
"j. c #7D4F72",
"k. c #841C79",
"l. c #84296A",
"z. c #823466",
"x. c #85346A",
"c. c #8A356D",
"v. c #843C6C",
"b. c #8A3A6D",
"n. c #882877",
"m. c #922E7D",
"M. c #8A3674",
"N. c #8D3C72",
"B. c #933B75",
"V. c #94347C",
"C. c #96387A",
"Z. c #84416E",
"A. c #864471",
"S. c #8B4473",
"D. c #834B73",
"F. c #884877",
"G. c #8D4D79",
"H. c #914375",
"J. c #954479",
"K. c #97487C",
"L. c #815377",
"P. c #8E517C",
"I. c #92537F",
"U. c #87647D",
"Y. c #851C81",
"T. c #8A2886",
"R. c #922B8D",
"E. c #8A3286",
"W. c #973887",
"Q. c #992B95",
"!. c #963393",
"~. c #9C3898",
"^. c #A1398E",
"/. c #A1359D",
"(. c #A93CA6",
"). c #9A4485",
"_. c #9C4C82",
"`. c #975884",
"'. c #92508A",
"]. c #A54889",
"[. c #A6558B",
"{. c #AA4894",
"}. c #B14D9A",
"|. c #AD5692",
" X c #B15396",
".X c #B6589B",
"XX c #B65C9A",
"oX c #8D6283",
"OX c #96678A",
"+X c #9B648C",
"@X c #9E6992",
"#X c #A36B94",
"$X c #A96A97",
"%X c #B8659C",
"&X c #A37299",
"*X c #AD739D",
"=X c #B1729F",
"-X c #AB47A8",
";X c #B148AE",
":X c #AA5AA7",
">X c #BB57A3",
",X c #B748B5",
"<X c #BC58BA",
"1X c #AD7AA2",
"2X c #B57AA6",
"3X c #C256B6",
"4X c #C566A9",
"5X c #C976AF",
"6X c #CD69B3",
"7X c #D26DB8",
"8X c #D775BD",
"9X c #C554C3",
"0X c #CA57C9",
"qX c #CE57CB",
"wX c #CA66C9",
"eX c #D66EC0",
"rX c #DB74C4",
"tX c #DD7AC2",
"yX c #D866D8",
"uX c #E06DDF",
"iX c #E26DE2",
"pX c #E472E4",
"aX c #E878E9",
"sX c #EC7AEC",
"dX c #F07EF0",
"fX c #AE82A3",
"gX c #B586AB",
"hX c #BB84AD",
"jX c #BD8AB2",
"kX c #C489B4",
"lX c #C595BA",
"zX c #CB94BD",
"xX c #CC97C0",
"cX c #CC9BC1",
"vX c #D59FC8",
"bX c #D5A4CA",
"nX c #D7A8CD",
"mX c #D9AFD1",
"MX c #DCADD2",
"NX c #E2AED5",
"BX c #E5B6DB",
"VX c #F686F7",
"CX c #EDBFE3",
"ZX c #ECC6E5",
"AX c #F1C9E9",
/* pixels */
"q w w e.T.c 3 3 3 I l.M.[.c.Y - X D.zX@X2XbX+Xy v.B.l.` ; w A VXaX0XM w X . . @ g A > c 9.x 4 3 p : ; = e , , , * p 4 G !.=.c w ",
"w 7 w 7 n.w.s 4 2 y _ n.z.K.:.p @ M kX2X2XnXvXA $._.u.` z 9 a wXVX,XW.7 > . . X # @.@ q 9.` q 4 4 q , = : b , > , O p 4 ] ~.L c ",
"d w 7 w 8 E.0.9 4 2 B } l.v.c.T > - `.lXjXnXCX+Xg _.N.U J - i '.VX,X3Xr i X + . - g a > G n.G 3 4 y : ; = x m 9 > , 3 y q 0.~.K ",
"K s w q w i R.] , 2 4 _ ' ,.b.<.n @  .lXjXnXAXMXA p.|.C v 0 9 @.pXqXQ.d.9 @ + X @ , | @ 0 m.r.k 2 r q > ; 1 ^ z 7 - , 3 y 0 0.-X",
";Xd s 0 9 9 h R.c 4 2 f ^ %.4.b.:., 4 &XjXMXZXAXoX..[.&.e c - | <XyXQ.~.> 4   + X , a u > ^ }.^ , 3 y , > ; Z ^ z 9 2 , 4 r s 0.",
"7.-Xs w 0 9 9 W T.w 2 3 I Z X.F.<.&.@ f.xXbXCXAXzX .S.u., e q t W.yX,XY.W , . $ @ - y j > e }.V.m % r : - ; 0 } I v , 2 2 y 4 c ",
"z w.!.s w 0 9 t s.] 4 2 i I m -.G.x.y a gXnXBXZXBXg.2.b.6 , z - e.0XqXT.0., @ + $ - 9 a r 7 } 8X} y 2 y , - ; I l.v G 3 - 2 y 4 ",
"4 c T.s.w 0 0 > h T.N 3 4 c m p G.u.4.- j.MXNXNXBXfX1.u.l - w > W (.qXQ.7.V , @ ; - - p t > v >X{.T 2 4 , - ; : l.r.J v 3 2 2 y ",
"y r F R.W t q q @ =.T.9 2 e x p | I.u.a A lXZXkXnXbXf.u.m 2 4 e i R.,X/.6.R 9 @ + > , y a r q n.4XM.u % r , - : k ].r.J N 3 2 3 ",
"2 r y H ~.i 9 0 9 2 W.{ 2 r z k 9 p.v.$.r @XAXzXkXnXoX4.$.- 2 e > E.(.R.[ Q f - @ 9 9 , M 4 > ^  X X*.2 3 4 - > 7 / >X} E f 2 3 ",
", 2 r q ] !.> 9 0 > y ,X0 2 c e q g h.,.y 3.NXZX_.xXjXi.;.= O y 9 d.Q.R.] Q c , . - u y , a 3 e m. X|.l % 4 , - 9 k c.>X[ _ w 2 ",
"2 , 4 4 e w.e.> 0 q - +.~.- i v w 9 @.a.Z a kXZX[.#XbXg.5.p X r e V /./.H v K e O @ i u : M 2 r :.W..XB.- 3 4 - - e m  X}.` _ q ",
"w 2 2 r 4 c !.h , 0 , @ {.W 2 R 0 9 g 2.:., `.ZXhXu.zXOXp.Y X O f > -XQ.F F H f 2 X 9 i y , g 2 m C.C.4XT O 3 , - ; m / 6XW.[ _ ",
"` w 2 2 r 4 H E.r 9 q - g -X4 n v 7 i @.u.n A BXlXt.+XxX3.*.= . f 7 M.k.] e v N r o + t t , p 3 y c.c.].|.i 2 4 , $ 7 Z x.7XV.[ ",
"` _ y 2 2 r y 0.=.3 : : , d.e.- ] 7 9 P p.*.> hXnXS.:.vXg.,.q X 4 s V Q.Q 0 z K p O X > t : , a - X.].} |.v.- 3 4 - ; e / ).eXV.",
"W._ _ r 2 3 y N s.g , , , g E.u N v ; n p.u.n 3.CX`.( #XhX-.m + X N > R.Q c t H N 4 . + 9 , : y 4 y _.c.l.[.$.2 4 , - ; m *.[.rX",
"rXW.` E 3 4 3 y 8.e.4 : - > e.{ 3 ] ; w 2.G.*.t nX*X*.,.vX2.$.= - , e =.6.c q K K y o - - 8 : q u @ &.XX( B.H.l 2 4 , + 9 T ;. X",
" XrXm.9.I 2 4 3 s R.g , - : q s.y K z ; X.`.,.M OXbX:.^ *X+X-.q - - z i w.c v t R N % - - - ; q y 4 , [.C.~ K.4.4 3 4 , + 7 *.;.",
":..X7Xn.9.N 2 4 4 { d.3 , - - R ! 3 J $ Y S.G.T O.nXv.~ S.kX-.C - , i w 7.c Q w N N t % , @ ; , q r % $.%X' :.J...3 3 4 - - 7 :.",
"*.z.4X4Xl.9.p 2 3 9 ~.A - - : > 8.y N 0 q S.I.,.A jX+X' <.*XP.$.> : > f L F ! R r v f % , 2 + ; q y 4 - K.J.~ <.H.l 2 4 , - - q ",
"q ;.N.7X>Xq.[ t 3 4 L -X- , - , w { 4 c $ v.K.A.T U.hX>.>.`.#X-.i ; , i s Q f E.0 q N 3 2 , @ $ : q r 2 C [.>.~ z.v.y 2 4 , - > ",
"; p <.K.rX{.q.E 3 3 4 n.y.- - , - L V s ; Z |.u.p.3.lXu.M._.#XZ.M > - 4 n R 9 ~.] , f p % , % @ ; 7 y 3 3 u.B.( ' z.a.- 3 4 , @ ",
"@ ; n b.|.8XW.9.B 2 4 i ;X4 , - 7 3 ! r w ; |.N.v.o.gXG.C._.$X`.C 8 ; - i N c ! -Xc r N 2 3 - X $ : 7 y 3 a J.:.~ ' v.-.- 3 4 , ",
", @ ; T J.4X6Xn.[ u 2 4 e.F.- = , , f L w ; u.XX<.3.OX*Xx.XX$X+XX.t - @ 4 N K 7 0Xw.r h t 2 2 O @ ; : y 4 3 &.b.' ( ' v.S 2 3 4 ",
"4 , - ; u.].8X.Xk.E r 2 a ).p ; $ 7 4 P p 7 e 6Xc.h.i.kXt.7X|.#Xa.i 9 + 3 f F 7 E.,X! r M & 2 O @ - ; : y 2 u z.>.;.' ;.v.M 2 3 ",
"3 4 > - 7 K.XX7X^.q.N 3 4 e.y., ; ; 9 i B 7 ; ]. Xv.1.kXI. XXX`.P.p u + @ 4 K N F yXR.y V 4 2 2 O - ; > 9 4 % ..z.' :.( <.z.p 2 ",
"2 3 4 - - n XX4X4Xn.[ y 3 M s.p > ; 9 t M p ; T 6XB.i.OX2X_..X_.`. .t $ X 4 h R q ;X9X+.y M & 2 O - = ; > r 3 4 a.:.' <.( u.a.q ",
"q 2 3 4 - > &.6X4X{.q.E 3 4 e.Y 7 ; > r p N > e  X].A.1.zX[.{.J.`.i.9 8 . @ y R f n.iXT.u N 3 O 2 2 - ; - , 4 2 a S.( :.<.( u.v.",
"A.1 2 3 , - 9 H.6X%XV.` N 3 M 8.q ; $ t u f w : x..XJ.o.hX$X}.l.A.G.9 8 . @ y V B ! yX9XP y V o 2 * - = > - 9 3 % $.b.( t.<.( u.",
"u.v.1 3 3 , - V XX4X].r.E i 2 e.p 9 $ 9 4 f n > ~ }.].v.j.2X Xq.,.`.P ; @ . > f R p 3XpXT.5 N 3 O * , - ; - - r 3 - a.<.( v.:.( ",
"( z.4., 3 3 - > 4.4XXXC.~ K 4 V W , > - r u h 7 z V.|.A.&.hX[.n.( D.i.; + . @ i K e W.sX9XP 4 M O 2 2 : = ; - , 4 2 1 A.;.;.S.:.",
"<.( v.&., 3 , - p J.4XJ.>.b n 2 e.4 9 + 9 2 V s q } ].b.i.+X[.V.J =.P.9 - . . , f c W yXpXR.5 h 4 O % , < ; > > 4 3 2 M b.' :.S.",
"H.<.*.v.Z - 3 > + &.].XX>.U G y f L 4 > - r r V 7 E l.b.,.g.=XM.` B D. .$ X . @ i N f ;XVX0XW 3 f O 2 2 e : : - , 4 3 2 X.v.( :.",
":.H.:.*.S.l 2 3 - , b.{.N./ v K 3 { 2 t - 9 2 V w x _ ;.>.i.$XN.9.z -.Z.$ @ # . , V p r.pXaXQ.4 u 4 2 2 , b : , - , 4 2 , 2.z.( ",
"( <.J.;.,.S.: 2 3 $ | B.[./ m _ p u P r > , 9 r N q _ T $.,.I.P.9.v m D.p @ @ . O f f K 3XaXqX! 5 u 2 2 2 m m : 8 - , 4 2 , v.u.",
"u.( z.H.*.a.4.- 2 - $ u.C.v.m z ] 3 W 3 9 ; q - h q _ x m ;.D.`.9._ 0 1.@.@ @ # o 4 V i R.yXsX(.y u 3 2 3 y ( e 7 > - , 3 2 : A.",
"v.u.( H.N.*.Z...- 2 - f c.B.T 0 _ N p g 9 , : , y w v I 0 T a.`.*.q.0 n h.> X + . O f y { wXqXpX{ r y % 2 4 I ( 0 7 - - 4 3 2 q ",
"q a.u.' [.b.:.Z.n 2 2 $ -.M.2.p 0 ] r V 4 7 q , > f e _ , e ,.`.-.9.F q 3.M X + + o r f p ,X0XpX,Xi p 2 - 2 w >.U e 9 - > 4 3 2 ",
"2 p a.,.:.%Xz.u.4.y 2 - w x.u.V q F K u i , 0 : > i q E q : $.F.i.E 0., C @.@ @ + . 2 f 3 s.uX0XaXr.4 f O , , I M.m k > - , 4 2 ",
"3 2 M v.*.v.2Xu.A...2 3 > T B. .i 7 E f u r q 0 - 9 i v k - n A.D.N T.w i 1.r X $ . o y u n 0XyXaX3Xn y 4 - , q r.C.k m > - , 4 ",
"3 2 - ..v.*.[.=Xa.A.p 3 - p z.u.i 7 s B u y 7 0 , , i 0 v X q u.P.C 9.] > o.V X + $ . 2 n O R.sXuXaXT.4 n O , 9 z ^.c.b n > - , ",
", 3 2 - 4.a.:.5X[.F.4., 2 > T K.M 7 7 z V r 7 0 : - f , v - > &.I.&.c ~.7 A  .- X > . o p 4 B yXaXdX0X] 3 i 2 , e ^ >Xt./ p > - ",
"- , 3 2 , v.u.G.zX`.`. .2 - p z.p.8 ; 0 N y 9 7 7 - 9 q z , X V G.p.q ~.R , @.r X > - . 2 N 2 ~.VXsXsX~.M y 4 - q z l.4X<./ e > ",
"> - , 3 @ e A.u.2XkX`.F.p 2 , / _.g > : e N - : 7 > - f 7 e X 9 4.F.p 8.!.; o.p - + 9 X o f 4 Y iXsXpXiX0.y y - - z J W.>X<.%.w ",
"q > - > 2 - C S.G.MX*X@X2., - n v.i.> ; 0 f t > 7 9 - i , z O # Y P.Z s ,Xv r o.- + 9 ; . 2 N 4 (.dXyXsX9XG r 4 - 3 G ' >X>X<.*.",
":.q > - > 2 , -.Z.2XBX$X`.C - , *.G.g ; ; e M @ , 9 3 > f e 2 X q h.2.q !.s.= 1.> - > , - o f r +.uX0XyXVXR.e r 2 > r ^ r.6X.X;.",
":.:.q - > - 2 p v.A.NXzX2Xh.y @ Y v.1.q ; 0 f > > 9 r @ f > y X ; &.D.q e.;Xw u  .- > > : X % N r -XpXQ.aXyX_ y 4 - - e _ n.rX X",
".X<.*.9 - , - -  .F.*XZXkX*X..2 y t.h.V > = s f - , w 3 9 w w X $ p G.n L ,X8.@ 3.- 9 r ; - o i r e.yX;X/.pX;Xz i 2 , 3 K _ W.tX",
"rX Xx.X.9 - > - 1 4.G.bXNXxXP.u @ 2.a.X.p ; q f - > d i @ f q 2 - ; 4.1.0 ~.R.9 M M , t - ; X % f q ,XpX7.<XqXn.q i 2 - 4 E _ W.",
"V.rX|.B.Y 8 - - @ M G.*XBXMXkX1.2 p S.2.Y 7 = f y @ v D 3 t 9 r > 8 M D.: s.(.D 2 @.- i > - - o y 9 8.sX,X) 9X,X_ r y 2 - y _ ` ",
"[ W.rX[._.n > - - - 2.@XzXMXBX@Xu - p.p.2.n ; 9 n @ e ] c 2 e q 3 9 > h.M L (.7.3 g a , t @ - - 2 y e ,XdX0.s.,X/.v 4 t 2 2 y ` ",
"` } {.tX].[.q - - - e P.kXvXBXbX3.2 M v.h.&.7 = f r - E.7.2 w q > t 8  .3.0 Q.T.w 3  .= t @ X - o y 4 7.dX<XD s.,Xs.s 3 r - 2 w ",
"q ` 9.>X8X|.J.> - - - &.1XxXxXAX*Xa 4 p.a.K.n ; w i @ d.~.P - p 9 > t 9 h.9 0./.D 4 g y 9 > X X X 2 y n (.pXs.! 6.9XQ e 4 3 > 2 ",
"2 e ` l.6X4X%X4.- - - 1 P.bXjXBXmXh.> Z A.`.5.: ; f - h wX~.X f y - i ; @.A F Q.7.9 t M , 9 X X O o i 2 [ yX;Xc 8.6.<XH q r 2 > ",
"- 2 N ` m.rX4X%XY $ - - X.jXcXgXZXgXM y u.I.XXk ; w 9 ; wXwXV 9 p , 9 9 V #.7 w.k.w r a q > $ X O O O p u R.qXs.s ] 0.(.F 9 r 2 ",
"2 - 3 I 9.].tX4X_.i + 2 y `.BX@XcXMXL., T P.%Xx.: 9 w - E.yX'.X N q ; 9 i o.t Q T.H 3 a y , ; X O * o r r E ;X(.K N Q s.!.c 4 r ",
"y 2 - 4 _ q..X8X4X4.> - - X.cXcXoXbXjXA p Z._.4Xm ; w @ 7.0XwXu s q ; > ;  .A 0 w.7.9 4 a : ; # X O 2 o f 4 n.(.s.w N H E.T.z 4 ",
"3 y 2 2 y 9.n.4X7X XV $ - y +XZXL.1XxXL.r $.S.4Xx.7 w - R ,XyXy.> s ; $ = V | 4 Q 0.d 2 g , , $ X O 2 - O f s (.T.! 9 c D ~.0.d ",
"z 4 r - % z q.W.6X>XJ.7 + - o.mXlXg.hXgXA C A.].>Xv 9 q , 0XyX:X> s - + # > o.4 w 0.E 9 3 a 1 ; # X O - O 4 y { (.0.N q c c ;X7.",
"0.s 4 4 - 2 E n. X6X].-.$ - y #XZXg.+XxXg.i 4.c.4Xr.7 f X ;XyXwX| w > + X +  .a 9 H [ w 2 g , : $ @ O 2 - O i q !.T.Q w 0 d c ;X",
"(.0.0 r 2 2 4 [ m.XX>XC.M # - 1.MXfXj.hX1Xu T v.{.W.z w - y.sXsXd.9 w X . X 9 o.2 d 6.F 9 3 a : ; # - 2 2 , 2 y z ;X8.F q w s D ",
"N ~.0.q r 2 3 f q.^.4X].<.> X i 1XxXL.@XlX#.V u.M.{._ 9 w y sXVX;Xi f @ . X   1.4 9 H Q w 3 u 9 7 $ = - 2 4 - r y Q ;XH c 9 w d ",
"c K !.] 9 r 2 4 E n.].%Xl...+ X g.bXOX`.jX@Xr :.N.].q.0 s 2 <XVXyXW s > . . X y  .2 d ] c 9 3 p : ; = : 2 3 , 2 y w 7.-Xd d 7 w ",
"w d W !.H 4 r 2 u [ V.].].;.i X i gX2X`.2XzXO.C v.C.n.G 7 9 d.VXyX~., i X . X   1.- 9 Q _ q 3 r q , $ : q 3 4 - r 4 c n.E.d s 9 "
};
